<svg width="20" height="20" viewBox="0 0 20 20" fill="none" xmlns="http://www.w3.org/2000/svg">
<g clip-path="url(#clip0_979_101)">
<path fill-rule="evenodd" clip-rule="evenodd" d="M7.354 17.7825C7.354 17.996 7.2692 18.2007 7.11824 18.3516C6.96729 18.5026 6.76255 18.5874 6.54907 18.5874C6.33559 18.5874 6.13085 18.5026 5.9799 18.3516C5.82895 18.2007 5.74414 17.996 5.74414 17.7825C5.74414 17.569 5.82895 17.3643 5.9799 17.2133C6.13085 17.0623 6.33559 16.9775 6.54907 16.9775C6.76255 16.9775 6.96729 17.0623 7.11824 17.2133C7.2692 17.3643 7.354 17.569 7.354 17.7825ZM10.5737 17.7825C10.5737 17.996 10.4889 18.2007 10.338 18.3516C10.187 18.5026 9.98228 18.5874 9.7688 18.5874C9.55532 18.5874 9.35058 18.5026 9.19963 18.3516C9.04867 18.2007 8.96387 17.996 8.96387 17.7825C8.96387 17.569 9.04867 17.3643 9.19963 17.2133C9.35058 17.0623 9.55532 16.9775 9.7688 16.9775C9.98228 16.9775 10.187 17.0623 10.338 17.2133C10.4889 17.3643 10.5737 17.569 10.5737 17.7825ZM12.9885 18.5874C13.202 18.5874 13.4067 18.5026 13.5577 18.3516C13.7087 18.2007 13.7935 17.996 13.7935 17.7825C13.7935 17.569 13.7087 17.3643 13.5577 17.2133C13.4067 17.0623 13.202 16.9775 12.9885 16.9775C12.775 16.9775 12.5703 17.0623 12.4194 17.2133C12.2684 17.3643 12.1836 17.569 12.1836 17.7825C12.1836 17.996 12.2684 18.2007 12.4194 18.3516C12.5703 18.5026 12.775 18.5874 12.9885 18.5874Z" fill="white"/>
<path fill-rule="evenodd" clip-rule="evenodd" d="M7.35376 1.68384C7.35376 1.89732 7.26896 2.10206 7.118 2.25301C6.96705 2.40396 6.76231 2.48877 6.54883 2.48877C6.33535 2.48877 6.13061 2.40396 5.97966 2.25301C5.8287 2.10206 5.7439 1.89732 5.7439 1.68384C5.7439 1.47036 5.8287 1.26562 5.97966 1.11467C6.13061 0.963711 6.33535 0.878906 6.54883 0.878906C6.76231 0.878906 6.96705 0.963711 7.118 1.11467C7.26896 1.26562 7.35376 1.47036 7.35376 1.68384ZM10.5735 1.68384C10.5735 1.89732 10.4887 2.10206 10.3377 2.25301C10.1868 2.40396 9.98204 2.48877 9.76856 2.48877C9.55507 2.48877 9.35034 2.40396 9.19938 2.25301C9.04843 2.10206 8.96362 1.89732 8.96362 1.68384C8.96362 1.47036 9.04843 1.26562 9.19938 1.11467C9.35034 0.963711 9.55507 0.878906 9.76856 0.878906C9.98204 0.878906 10.1868 0.963711 10.3377 1.11467C10.4887 1.26562 10.5735 1.47036 10.5735 1.68384ZM12.9883 2.48877C13.2018 2.48877 13.4065 2.40396 13.5575 2.25301C13.7084 2.10206 13.7932 1.89732 13.7932 1.68384C13.7932 1.47036 13.7084 1.26562 13.5575 1.11467C13.4065 0.963711 13.2018 0.878906 12.9883 0.878906C12.7748 0.878906 12.5701 0.963711 12.4191 1.11467C12.2682 1.26562 12.1834 1.47036 12.1834 1.68384C12.1834 1.89732 12.2682 2.10206 12.4191 2.25301C12.5701 2.40396 12.7748 2.48877 12.9883 2.48877ZM7.35376 17.7825C7.35376 17.996 7.26896 18.2007 7.118 18.3516C6.96705 18.5026 6.76231 18.5874 6.54883 18.5874C6.33535 18.5874 6.13061 18.5026 5.97966 18.3516C5.8287 18.2007 5.7439 17.996 5.7439 17.7825C5.7439 17.569 5.8287 17.3643 5.97966 17.2133C6.13061 17.0623 6.33535 16.9775 6.54883 16.9775C6.76231 16.9775 6.96705 17.0623 7.118 17.2133C7.26896 17.3643 7.35376 17.569 7.35376 17.7825ZM10.5735 17.7825C10.5735 17.996 10.4887 18.2007 10.3377 18.3516C10.1868 18.5026 9.98204 18.5874 9.76856 18.5874C9.55507 18.5874 9.35034 18.5026 9.19938 18.3516C9.04843 18.2007 8.96362 17.996 8.96362 17.7825C8.96362 17.569 9.04843 17.3643 9.19938 17.2133C9.35034 17.0623 9.55507 16.9775 9.76856 16.9775C9.98204 16.9775 10.1868 17.0623 10.3377 17.2133C10.4887 17.3643 10.5735 17.569 10.5735 17.7825ZM12.9883 18.5874C13.2018 18.5874 13.4065 18.5026 13.5575 18.3516C13.7084 18.2007 13.7932 17.996 13.7932 17.7825C13.7932 17.569 13.7084 17.3643 13.5575 17.2133C13.4065 17.0623 13.2018 16.9775 12.9883 16.9775C12.7748 16.9775 12.5701 17.0623 12.4191 17.2133C12.2682 17.3643 12.1834 17.569 12.1834 17.7825C12.1834 17.996 12.2682 18.2007 12.4191 18.3516C12.5701 18.5026 12.7748 18.5874 12.9883 18.5874ZM18.6228 12.9529C18.6228 12.7394 18.538 12.5347 18.387 12.3837C18.2361 12.2328 18.0314 12.148 17.8179 12.148C17.6044 12.148 17.3997 12.2328 17.2487 12.3837C17.0977 12.5347 17.0129 12.7394 17.0129 12.9529C17.0129 13.1664 17.0977 13.3711 17.2487 13.5221C17.3997 13.673 17.6044 13.7578 17.8179 13.7578C18.0314 13.7578 18.2361 13.673 18.387 13.5221C18.538 13.3711 18.6228 13.1664 18.6228 12.9529ZM18.6228 9.73316C18.6228 9.51967 18.538 9.31494 18.387 9.16398C18.2361 9.01303 18.0314 8.92822 17.8179 8.92822C17.6044 8.92822 17.3997 9.01303 17.2487 9.16398C17.0977 9.31494 17.0129 9.51967 17.0129 9.73316C17.0129 9.94664 17.0977 10.1514 17.2487 10.3023C17.3997 10.4533 17.6044 10.5381 17.8179 10.5381C18.0314 10.5381 18.2361 10.4533 18.387 10.3023C18.538 10.1514 18.6228 9.94664 18.6228 9.73316ZM17.8179 5.7085C18.0314 5.7085 18.2361 5.7933 18.387 5.94426C18.538 6.09521 18.6228 6.29995 18.6228 6.51343C18.6228 6.72691 18.538 6.93165 18.387 7.0826C18.2361 7.23355 18.0314 7.31836 17.8179 7.31836C17.6044 7.31836 17.3997 7.23355 17.2487 7.0826C17.0977 6.93165 17.0129 6.72691 17.0129 6.51343C17.0129 6.29995 17.0977 6.09521 17.2487 5.94426C17.3997 5.7933 17.6044 5.7085 17.8179 5.7085ZM1.71924 12.148C1.93272 12.148 2.13746 12.2328 2.28841 12.3837C2.43937 12.5347 2.52417 12.7394 2.52417 12.9529C2.52417 13.1664 2.43937 13.3711 2.28841 13.5221C2.13746 13.673 1.93272 13.7578 1.71924 13.7578C1.50576 13.7578 1.30102 13.673 1.15007 13.5221C0.999112 13.3711 0.914307 13.1664 0.914307 12.9529C0.914307 12.7394 0.999112 12.5347 1.15007 12.3837C1.30102 12.2328 1.50576 12.148 1.71924 12.148ZM1.71924 8.92822C1.93272 8.92822 2.13746 9.01303 2.28841 9.16398C2.43937 9.31494 2.52417 9.51967 2.52417 9.73316C2.52417 9.94664 2.43937 10.1514 2.28841 10.3023C2.13746 10.4533 1.93272 10.5381 1.71924 10.5381C1.50576 10.5381 1.30102 10.4533 1.15007 10.3023C0.999112 10.1514 0.914307 9.94664 0.914307 9.73316C0.914307 9.51967 0.999112 9.31494 1.15007 9.16398C1.30102 9.01303 1.50576 8.92822 1.71924 8.92822ZM2.52417 6.51343C2.52417 6.29995 2.43937 6.09521 2.28841 5.94426C2.13746 5.7933 1.93272 5.7085 1.71924 5.7085C1.50576 5.7085 1.30102 5.7933 1.15007 5.94426C0.999112 6.09521 0.914307 6.29995 0.914307 6.51343C0.914307 6.72691 0.999112 6.93165 1.15007 7.0826C1.30102 7.23355 1.50576 7.31836 1.71924 7.31836C1.93272 7.31836 2.13746 7.23355 2.28841 7.0826C2.43937 6.93165 2.52417 6.72691 2.52417 6.51343ZM13.7932 4.90356H5.7439C5.53042 4.90356 5.32568 4.98837 5.17472 5.13932C5.02377 5.29028 4.93897 5.49502 4.93897 5.7085V13.7578C4.93897 13.9713 5.02377 14.176 5.17472 14.327C5.32568 14.4779 5.53042 14.5627 5.7439 14.5627H13.7932C14.0067 14.5627 14.2114 14.4779 14.3624 14.327C14.5133 14.176 14.5981 13.9713 14.5981 13.7578V5.7085C14.5981 5.49502 14.5133 5.29028 14.3624 5.13932C14.2114 4.98837 14.0067 4.90356 13.7932 4.90356ZM5.7439 3.2937C5.10345 3.2937 4.48924 3.54812 4.03638 4.00098C3.58352 4.45384 3.3291 5.06805 3.3291 5.7085V13.7578C3.3291 14.3983 3.58352 15.0125 4.03638 15.4653C4.48924 15.9182 5.10345 16.1726 5.7439 16.1726H13.7932C14.4337 16.1726 15.0479 15.9182 15.5007 15.4653C15.9536 15.0125 16.208 14.3983 16.208 13.7578V5.7085C16.208 5.06805 15.9536 4.45384 15.5007 4.00098C15.0479 3.54812 14.4337 3.2937 13.7932 3.2937H5.7439ZM11.3784 8.12329H8.15869V11.343H11.3784V8.12329ZM7.35376 6.51343C6.90921 6.51343 6.54883 6.87381 6.54883 7.31836V12.148C6.54883 12.5925 6.90921 12.9529 7.35376 12.9529H12.1834C12.6279 12.9529 12.9883 12.5925 12.9883 12.148V7.31836C12.9883 6.87381 12.6279 6.51343 12.1834 6.51343H7.35376Z" fill="white"/>
</g>
<defs>
<clipPath id="clip0_979_101">
<rect width="19.3184" height="19.3184" fill="white" transform="translate(0.109619 0.0739746)"/>
</clipPath>
</defs>
</svg>
