<svg width="21" height="20" viewBox="0 0 21 20" fill="none" xmlns="http://www.w3.org/2000/svg">
<g clip-path="url(#clip0_979_90)">
<path d="M3.62348 12.0669C2.90667 12.1565 2.31812 11.5623 2.31812 10.8399C2.31812 10.1175 2.90805 9.54334 3.62082 9.42577C6.92631 8.88056 9.51484 6.29204 10.0601 2.98654C10.1776 2.27378 10.7518 1.68384 11.4742 1.68384C12.1966 1.68384 12.7908 2.27239 12.7012 2.9892C12.1099 7.71644 8.35072 11.4756 3.62348 12.0669ZM3.61758 8.09335C2.90971 8.23752 2.31812 7.63829 2.31812 6.91589C2.31812 6.1935 2.91953 5.6298 3.60327 5.39666C4.74509 5.00731 5.64159 4.11081 6.03094 2.96899C6.26408 2.28525 6.82778 1.68384 7.55017 1.68384C8.27257 1.68384 8.8718 2.27543 8.72763 2.9833C8.20629 5.54314 6.17742 7.57201 3.61758 8.09335ZM3.57233 3.97961C2.93836 4.32593 2.31812 3.71425 2.31812 2.99185C2.31812 2.26945 2.90373 1.68384 3.62613 1.68384C4.34853 1.68384 4.96021 2.30408 4.61389 2.93805C4.49542 3.15491 4.34581 3.35577 4.16793 3.53365C3.99005 3.71153 3.78919 3.86114 3.57233 3.97961Z" fill="white"/>
</g>
<g clip-path="url(#clip1_979_90)">
<path d="M17.9166 8.20436C18.6334 8.1147 19.2219 8.70891 19.2219 9.43131C19.2219 10.1537 18.632 10.7279 17.9192 10.8455C14.6137 11.3907 12.0252 13.9792 11.48 17.2847C11.3624 17.9975 10.7882 18.5874 10.0658 18.5874C9.34343 18.5874 8.74922 17.9988 8.83888 17.282C9.43017 12.5548 13.1893 8.79565 17.9166 8.20436ZM17.9225 12.1779C18.6303 12.0337 19.2219 12.633 19.2219 13.3553C19.2219 14.0777 18.6205 14.6414 17.9368 14.8746C16.7949 15.2639 15.8985 16.1604 15.5091 17.3023C15.276 17.986 14.7123 18.5874 13.9899 18.5874C13.2675 18.5874 12.6682 17.9958 12.8124 17.2879C13.3338 14.7281 15.3626 12.6992 17.9225 12.1779ZM17.9677 16.2916C18.6017 15.9453 19.2219 16.557 19.2219 17.2794C19.2219 18.0018 18.6363 18.5874 17.9139 18.5874C17.1915 18.5874 16.5798 17.9672 16.9262 17.3332C17.0446 17.1163 17.1942 16.9155 17.3721 16.7376C17.55 16.5597 17.7508 16.4101 17.9677 16.2916Z" fill="white"/>
</g>
<defs>
<clipPath id="clip0_979_90">
<rect width="11.269" height="11.269" fill="white" transform="matrix(1 0 0 -1 2.31812 12.9529)"/>
</clipPath>
<clipPath id="clip1_979_90">
<rect width="11.269" height="11.269" fill="white" transform="matrix(-1 0 0 1 19.2219 7.31836)"/>
</clipPath>
</defs>
</svg>
