<svg width="20" height="20" viewBox="0 0 20 20" fill="none" xmlns="http://www.w3.org/2000/svg">
<path d="M16.2645 8.81146H17.9441C17.8929 7.95047 17.7034 7.10336 17.3831 6.30267L15.9085 7.15519C16.0966 7.67897 16.22 8.23387 16.2645 8.81146ZM13.3396 2.02074C12.5234 1.63157 11.647 1.38422 10.748 1.28929V2.98844C11.3519 3.06736 11.9414 3.23301 12.4981 3.48028L13.3396 2.02074ZM15.1375 5.65866L16.5996 4.81371C16.101 4.0775 15.4847 3.42846 14.7756 2.8926L13.9308 4.35718C14.3914 4.73286 14.7975 5.17089 15.1375 5.65866ZM9.90737 15.7048C8.21467 15.7048 6.59129 15.0316 5.39437 13.8333C4.19745 12.635 3.52502 11.0097 3.52502 9.31507C3.52502 6.33119 5.56965 3.83112 8.33175 3.12917C8.74788 3.02341 9.06843 2.66665 9.06843 2.23729C9.06843 1.72987 8.62724 1.33024 8.13219 1.4416C4.53343 2.25118 1.84546 5.46852 1.84546 9.31507C1.84535 10.3751 2.05382 11.4248 2.45897 12.4042C2.86413 13.3836 3.45802 14.2735 4.20674 15.0231C4.95546 15.7727 5.84433 16.3672 6.8226 16.7729C7.80087 17.1785 8.84937 17.3872 9.90821 17.3871C13.6174 17.3871 16.7346 14.8758 17.672 11.4595C17.8098 10.9573 17.4073 10.493 16.8866 10.493C16.4754 10.493 16.1285 10.7885 16.0086 11.1819C15.2111 13.7994 12.7829 15.7048 9.90737 15.7048Z" fill="white"/>
<circle cx="9.99814" cy="9.4313" r="2.71664" fill="white"/>
</svg>
