<svg width="21" height="20" viewBox="0 0 21 20" fill="none" xmlns="http://www.w3.org/2000/svg">
<path d="M5.02862 12.8957C4.85142 12.1224 4.76231 11.3315 4.763 10.5381C4.763 6.44261 7.09971 2.94276 10.3975 1.53735C13.6953 2.94276 16.032 6.44261 16.032 10.5381C16.032 11.3511 15.9403 12.1407 15.7664 12.8957L17.3924 14.3414C17.4624 14.4036 17.5084 14.4883 17.5227 14.5809C17.537 14.6735 17.5185 14.7681 17.4705 14.8485L15.4919 18.1455C15.4604 18.1979 15.4174 18.2424 15.3662 18.2757C15.3149 18.309 15.2567 18.3302 15.196 18.3376C15.1354 18.3451 15.0738 18.3386 15.016 18.3187C14.9582 18.2988 14.9057 18.266 14.8625 18.2228L13.0482 16.4085C12.8972 16.2575 12.6925 16.1727 12.4791 16.1726H8.31596C8.1025 16.1727 7.8978 16.2575 7.74688 16.4085L5.93256 18.2228C5.88933 18.266 5.83682 18.2988 5.77903 18.3187C5.72123 18.3386 5.65966 18.3451 5.59899 18.3376C5.53832 18.3302 5.48015 18.309 5.42888 18.2757C5.37761 18.2424 5.3346 18.1979 5.3031 18.1455L3.32458 14.8493C3.27635 14.7688 3.25775 14.674 3.27201 14.5813C3.28626 14.4885 3.33248 14.4037 3.40266 14.3414L5.02862 12.8957ZM10.3975 10.5381C10.8245 10.5381 11.234 10.3685 11.5359 10.0666C11.8378 9.76467 12.0074 9.3552 12.0074 8.92824C12.0074 8.50127 11.8378 8.0918 11.5359 7.78989C11.234 7.48798 10.8245 7.31837 10.3975 7.31837C9.97056 7.31837 9.56108 7.48798 9.25917 7.78989C8.95726 8.0918 8.78765 8.50127 8.78765 8.92824C8.78765 9.3552 8.95726 9.76467 9.25917 10.0666C9.56108 10.3685 9.97056 10.5381 10.3975 10.5381Z" fill="white"/>
</svg>
