<svg width="20" height="20" viewBox="0 0 20 20" fill="none" xmlns="http://www.w3.org/2000/svg">
<path d="M12.6384 3.2937H11.2942V2.48877C11.2942 2.04606 10.932 1.68384 10.4893 1.68384H8.8794C8.43668 1.68384 8.07446 2.04606 8.07446 2.48877V3.2937H6.73023C6.14263 3.2937 5.65967 3.77666 5.65967 4.36426V16.7039C5.65967 17.2995 6.14263 17.7825 6.73828 17.7825H12.6304C13.226 17.7825 13.709 17.2995 13.709 16.7119V4.36426C13.709 3.77666 13.226 3.2937 12.6384 3.2937ZM11.7852 10.7313L9.63603 14.7559C9.44285 15.1181 8.8794 14.9813 8.8794 14.5627V11.7455H7.93762C7.86767 11.7457 7.79887 11.7276 7.73801 11.6931C7.67716 11.6586 7.62635 11.6088 7.59059 11.5487C7.55484 11.4886 7.53537 11.4202 7.53412 11.3502C7.53287 11.2803 7.54987 11.2112 7.58346 11.1498L9.73262 7.12518C9.92581 6.76296 10.4893 6.8998 10.4893 7.31836V10.1356H11.431C11.7289 10.1356 11.9301 10.4576 11.7852 10.7313Z" fill="white"/>
</svg>
