<svg width="20" height="20" viewBox="0 0 20 20" fill="none" xmlns="http://www.w3.org/2000/svg">
<path fill-rule="evenodd" clip-rule="evenodd" d="M7.24463 17.7085C7.24463 17.922 7.15982 18.1267 7.00887 18.2777C6.85792 18.4286 6.65318 18.5134 6.4397 18.5134C6.22622 18.5134 6.02148 18.4286 5.87052 18.2777C5.71957 18.1267 5.63477 17.922 5.63477 17.7085C5.63477 17.495 5.71957 17.2903 5.87052 17.1393C6.02148 16.9884 6.22622 16.9036 6.4397 16.9036C6.65318 16.9036 6.85792 16.9884 7.00887 17.1393C7.15982 17.2903 7.24463 17.495 7.24463 17.7085ZM10.4644 17.7085C10.4644 17.922 10.3796 18.1267 10.2286 18.2777C10.0776 18.4286 9.87291 18.5134 9.65942 18.5134C9.44594 18.5134 9.24121 18.4286 9.09025 18.2777C8.9393 18.1267 8.85449 17.922 8.85449 17.7085C8.85449 17.495 8.9393 17.2903 9.09025 17.1393C9.24121 16.9884 9.44594 16.9036 9.65942 16.9036C9.87291 16.9036 10.0776 16.9884 10.2286 17.1393C10.3796 17.2903 10.4644 17.495 10.4644 17.7085ZM12.8792 18.5134C13.0926 18.5134 13.2974 18.4286 13.4483 18.2777C13.5993 18.1267 13.6841 17.922 13.6841 17.7085C13.6841 17.495 13.5993 17.2903 13.4483 17.1393C13.2974 16.9884 13.0926 16.9036 12.8792 16.9036C12.6657 16.9036 12.4609 16.9884 12.31 17.1393C12.159 17.2903 12.0742 17.495 12.0742 17.7085C12.0742 17.922 12.159 18.1267 12.31 18.2777C12.4609 18.4286 12.6657 18.5134 12.8792 18.5134Z" fill="white"/>
<path fill-rule="evenodd" clip-rule="evenodd" d="M7.24414 1.60986C7.24414 1.82334 7.15934 2.02808 7.00838 2.17904C6.85743 2.32999 6.65269 2.4148 6.43921 2.4148C6.22573 2.4148 6.02099 2.32999 5.87004 2.17904C5.71908 2.02808 5.63428 1.82334 5.63428 1.60986C5.63428 1.39638 5.71908 1.19164 5.87004 1.04069C6.02099 0.889737 6.22573 0.804932 6.43921 0.804932C6.65269 0.804932 6.85743 0.889737 7.00838 1.04069C7.15934 1.19164 7.24414 1.39638 7.24414 1.60986ZM10.4639 1.60986C10.4639 1.82334 10.3791 2.02808 10.2281 2.17904C10.0772 2.32999 9.87242 2.4148 9.65894 2.4148C9.44545 2.4148 9.24072 2.32999 9.08976 2.17904C8.93881 2.02808 8.854 1.82334 8.854 1.60986C8.854 1.39638 8.93881 1.19164 9.08976 1.04069C9.24072 0.889737 9.44545 0.804932 9.65894 0.804932C9.87242 0.804932 10.0772 0.889737 10.2281 1.04069C10.3791 1.19164 10.4639 1.39638 10.4639 1.60986ZM12.8787 2.4148C13.0921 2.4148 13.2969 2.32999 13.4478 2.17904C13.5988 2.02808 13.6836 1.82334 13.6836 1.60986C13.6836 1.39638 13.5988 1.19164 13.4478 1.04069C13.2969 0.889737 13.0921 0.804932 12.8787 0.804932C12.6652 0.804932 12.4604 0.889737 12.3095 1.04069C12.1585 1.19164 12.0737 1.39638 12.0737 1.60986C12.0737 1.82334 12.1585 2.02808 12.3095 2.17904C12.4604 2.32999 12.6652 2.4148 12.8787 2.4148ZM7.24414 17.7085C7.24414 17.922 7.15934 18.1267 7.00838 18.2777C6.85743 18.4286 6.65269 18.5134 6.43921 18.5134C6.22573 18.5134 6.02099 18.4286 5.87004 18.2777C5.71908 18.1267 5.63428 17.922 5.63428 17.7085C5.63428 17.495 5.71908 17.2903 5.87004 17.1393C6.02099 16.9884 6.22573 16.9036 6.43921 16.9036C6.65269 16.9036 6.85743 16.9884 7.00838 17.1393C7.15934 17.2903 7.24414 17.495 7.24414 17.7085ZM10.4639 17.7085C10.4639 17.922 10.3791 18.1267 10.2281 18.2777C10.0772 18.4286 9.87242 18.5134 9.65894 18.5134C9.44545 18.5134 9.24072 18.4286 9.08976 18.2777C8.93881 18.1267 8.854 17.922 8.854 17.7085C8.854 17.495 8.93881 17.2903 9.08976 17.1393C9.24072 16.9884 9.44545 16.9036 9.65894 16.9036C9.87242 16.9036 10.0772 16.9884 10.2281 17.1393C10.3791 17.2903 10.4639 17.495 10.4639 17.7085ZM12.8787 18.5134C13.0921 18.5134 13.2969 18.4286 13.4478 18.2777C13.5988 18.1267 13.6836 17.922 13.6836 17.7085C13.6836 17.495 13.5988 17.2903 13.4478 17.1393C13.2969 16.9884 13.0921 16.9036 12.8787 16.9036C12.6652 16.9036 12.4604 16.9884 12.3095 17.1393C12.1585 17.2903 12.0737 17.495 12.0737 17.7085C12.0737 17.922 12.1585 18.1267 12.3095 18.2777C12.4604 18.4286 12.6652 18.5134 12.8787 18.5134ZM18.5132 12.8789C18.5132 12.6654 18.4284 12.4607 18.2774 12.3097C18.1265 12.1588 17.9217 12.074 17.7083 12.074C17.4948 12.074 17.29 12.1588 17.1391 12.3097C16.9881 12.4607 16.9033 12.6654 16.9033 12.8789C16.9033 13.0924 16.9881 13.2971 17.1391 13.4481C17.29 13.599 17.4948 13.6838 17.7083 13.6838C17.9217 13.6838 18.1265 13.599 18.2774 13.4481C18.4284 13.2971 18.5132 13.0924 18.5132 12.8789ZM18.5132 9.65918C18.5132 9.4457 18.4284 9.24096 18.2774 9.09001C18.1265 8.93905 17.9217 8.85425 17.7083 8.85425C17.4948 8.85425 17.29 8.93905 17.1391 9.09001C16.9881 9.24096 16.9033 9.4457 16.9033 9.65918C16.9033 9.87266 16.9881 10.0774 17.1391 10.2284C17.29 10.3793 17.4948 10.4641 17.7083 10.4641C17.9217 10.4641 18.1265 10.3793 18.2774 10.2284C18.4284 10.0774 18.5132 9.87266 18.5132 9.65918ZM17.7083 5.63452C17.9217 5.63452 18.1265 5.71933 18.2774 5.87028C18.4284 6.02123 18.5132 6.22597 18.5132 6.43945C18.5132 6.65293 18.4284 6.85767 18.2774 7.00863C18.1265 7.15958 17.9217 7.24439 17.7083 7.24439C17.4948 7.24439 17.29 7.15958 17.1391 7.00863C16.9881 6.85767 16.9033 6.65293 16.9033 6.43945C16.9033 6.22597 16.9881 6.02123 17.1391 5.87028C17.29 5.71933 17.4948 5.63452 17.7083 5.63452ZM1.60962 12.074C1.8231 12.074 2.02784 12.1588 2.17879 12.3097C2.32975 12.4607 2.41455 12.6654 2.41455 12.8789C2.41455 13.0924 2.32975 13.2971 2.17879 13.4481C2.02784 13.599 1.8231 13.6838 1.60962 13.6838C1.39614 13.6838 1.1914 13.599 1.04045 13.4481C0.889493 13.2971 0.804688 13.0924 0.804688 12.8789C0.804687 12.6654 0.889493 12.4607 1.04045 12.3097C1.1914 12.1588 1.39614 12.074 1.60962 12.074ZM1.60962 8.85425C1.8231 8.85425 2.02784 8.93905 2.17879 9.09001C2.32975 9.24096 2.41455 9.4457 2.41455 9.65918C2.41455 9.87266 2.32975 10.0774 2.17879 10.2284C2.02784 10.3793 1.8231 10.4641 1.60962 10.4641C1.39614 10.4641 1.1914 10.3793 1.04045 10.2284C0.889493 10.0774 0.804688 9.87266 0.804688 9.65918C0.804687 9.4457 0.889493 9.24096 1.04045 9.09001C1.1914 8.93905 1.39614 8.85425 1.60962 8.85425ZM2.41455 6.43945C2.41455 6.22597 2.32975 6.02123 2.17879 5.87028C2.02784 5.71933 1.8231 5.63452 1.60962 5.63452C1.39614 5.63452 1.1914 5.71933 1.04045 5.87028C0.889493 6.02123 0.804688 6.22597 0.804688 6.43945C0.804688 6.65293 0.889493 6.85767 1.04045 7.00863C1.1914 7.15958 1.39614 7.24439 1.60962 7.24439C1.8231 7.24439 2.02784 7.15958 2.17879 7.00863C2.32975 6.85767 2.41455 6.65293 2.41455 6.43945ZM13.6836 4.82959H5.63428C5.4208 4.82959 5.21606 4.9144 5.0651 5.06535C4.91415 5.2163 4.82935 5.42104 4.82935 5.63452V13.6838C4.82935 13.8973 4.91415 14.1021 5.0651 14.253C5.21606 14.404 5.4208 14.4888 5.63428 14.4888H13.6836C13.8971 14.4888 14.1018 14.404 14.2528 14.253C14.4037 14.1021 14.4885 13.8973 14.4885 13.6838V5.63452C14.4885 5.42104 14.4037 5.2163 14.2528 5.06535C14.1018 4.9144 13.8971 4.82959 13.6836 4.82959ZM5.63428 3.21973C4.99383 3.21973 4.37962 3.47414 3.92676 3.927C3.4739 4.37987 3.21948 4.99408 3.21948 5.63452V13.6838C3.21948 14.3243 3.4739 14.9385 3.92676 15.3914C4.37962 15.8442 4.99383 16.0986 5.63428 16.0986H13.6836C14.324 16.0986 14.9383 15.8442 15.3911 15.3914C15.844 14.9385 16.0984 14.3243 16.0984 13.6838V5.63452C16.0984 4.99408 15.844 4.37987 15.3911 3.927C14.9383 3.47414 14.324 3.21973 13.6836 3.21973H5.63428ZM11.2688 8.04932H8.04907V11.269H11.2688V8.04932ZM7.24414 6.43945C6.79959 6.43945 6.43921 6.79983 6.43921 7.24439V12.074C6.43921 12.5185 6.79959 12.8789 7.24414 12.8789H12.0737C12.5183 12.8789 12.8787 12.5185 12.8787 12.074V7.24439C12.8787 6.79983 12.5183 6.43945 12.0737 6.43945H7.24414Z" fill="white"/>
</svg>
