<svg width="20" height="20" viewBox="0 0 20 20" fill="none" xmlns="http://www.w3.org/2000/svg">
<path d="M12.613 3.21973H11.2688V2.4148C11.2688 1.97208 10.9066 1.60986 10.4639 1.60986H8.854C8.41129 1.60986 8.04907 1.97208 8.04907 2.4148V3.21973H6.70484C6.11724 3.21973 5.63428 3.70269 5.63428 4.29029V16.6299C5.63428 17.2255 6.11724 17.7085 6.71289 17.7085H12.605C13.2006 17.7085 13.6836 17.2255 13.6836 16.6379V4.29029C13.6836 3.70269 13.2006 3.21973 12.613 3.21973ZM11.7598 10.6573L9.61064 14.682C9.41746 15.0442 8.854 14.9073 8.854 14.4888V11.6715H7.91223C7.84228 11.6717 7.77348 11.6537 7.71262 11.6191C7.65176 11.5846 7.60095 11.5349 7.5652 11.4747C7.52945 11.4146 7.50998 11.3462 7.50873 11.2762C7.50748 11.2063 7.52448 11.1372 7.55806 11.0759L9.70723 7.0512C9.90042 6.68898 10.4639 6.82582 10.4639 7.24439V10.0616H11.4056C11.7035 10.0616 11.9047 10.3836 11.7598 10.6573Z" fill="white"/>
</svg>
