<svg width="15" height="15" viewBox="0 0 15 15" fill="none" xmlns="http://www.w3.org/2000/svg">
<path fill-rule="evenodd" clip-rule="evenodd" d="M7.24439 14.4888C11.2453 14.4888 14.4888 11.2453 14.4888 7.24439C14.4888 3.24342 11.2453 0 7.24439 0C3.24342 0 0 3.24342 0 7.24439C0 11.2453 3.24342 14.4888 7.24439 14.4888ZM10.6642 6.15043C10.8936 5.90844 10.8833 5.52633 10.6413 5.29698C10.3993 5.06762 10.0172 5.07787 9.78786 5.31986L6.55461 8.73128L5.32396 7.43281C5.0946 7.19082 4.7125 7.18057 4.4705 7.40992C4.22851 7.63928 4.21826 8.02138 4.44762 8.26338L6.11645 10.0242C6.23045 10.1445 6.38889 10.2126 6.55461 10.2126C6.72034 10.2126 6.87878 10.1445 6.99278 10.0242L10.6642 6.15043Z" fill="#9499C3"/>
</svg>
