<svg width="20" height="20" viewBox="0 0 20 20" fill="none" xmlns="http://www.w3.org/2000/svg">
<g clip-path="url(#clip0_116_3709)">
<path d="M2.91523 11.9929C2.19842 12.0826 1.60986 11.4884 1.60986 10.766C1.60986 10.0436 2.1998 9.46936 2.91257 9.3518C6.21806 8.80658 8.80658 6.21806 9.3518 2.91257C9.46936 2.1998 10.0436 1.60986 10.766 1.60986C11.4884 1.60986 12.0826 2.19842 11.9929 2.91523C11.4016 7.64246 7.64247 11.4016 2.91523 11.9929ZM2.90933 8.01938C2.20146 8.16354 1.60986 7.56431 1.60986 6.84192C1.60986 6.11952 2.21128 5.55583 2.89502 5.32268C4.03684 4.93333 4.93333 4.03684 5.32268 2.89501C5.55583 2.21128 6.11952 1.60986 6.84192 1.60986C7.56432 1.60986 8.16355 2.20146 8.01938 2.90932C7.49803 5.46916 5.46916 7.49803 2.90933 8.01938ZM2.86408 3.90563C2.23011 4.25196 1.60986 3.64027 1.60986 2.91788C1.60986 2.19548 2.19548 1.60986 2.91788 1.60986C3.64027 1.60986 4.25196 2.23011 3.90564 2.86408C3.78717 3.08094 3.63755 3.28179 3.45967 3.45967C3.2818 3.63755 3.08094 3.78717 2.86408 3.90563Z" fill="white"/>
</g>
<g clip-path="url(#clip1_116_3709)">
<path d="M17.2083 8.13038C17.9251 8.04072 18.5137 8.63493 18.5137 9.35733C18.5137 10.0797 17.9237 10.6539 17.211 10.7715C13.9055 11.3167 11.317 13.9052 10.7717 17.2107C10.6542 17.9235 10.08 18.5134 9.35757 18.5134C8.63518 18.5134 8.04097 17.9249 8.13063 17.2081C8.72192 12.4808 12.4811 8.72168 17.2083 8.13038ZM17.2142 12.1039C17.9221 11.9597 18.5137 12.559 18.5137 13.2814C18.5137 14.0038 17.9123 14.5675 17.2285 14.8006C16.0867 15.19 15.1902 16.0865 14.8009 17.2283C14.5677 17.912 14.004 18.5134 13.2816 18.5134C12.5592 18.5134 11.96 17.9218 12.1042 17.214C12.6255 14.6541 14.6544 12.6253 17.2142 12.1039ZM17.2595 16.2177C17.8934 15.8713 18.5137 16.483 18.5137 17.2054C18.5137 17.9278 17.9281 18.5134 17.2057 18.5134C16.4833 18.5134 15.8716 17.8932 16.2179 17.2592C16.3364 17.0424 16.486 16.8415 16.6639 16.6636C16.8417 16.4857 17.0426 16.3361 17.2595 16.2177Z" fill="white"/>
</g>
<defs>
<clipPath id="clip0_116_3709">
<rect width="11.269" height="11.269" fill="white" transform="matrix(1 0 0 -1 1.60986 12.8789)"/>
</clipPath>
<clipPath id="clip1_116_3709">
<rect width="11.269" height="11.269" fill="white" transform="matrix(-1 0 0 1 18.5137 7.24438)"/>
</clipPath>
</defs>
</svg>
