<svg width="19" height="19" viewBox="0 0 19 19" fill="none" xmlns="http://www.w3.org/2000/svg">
<path d="M16.7523 8.79999C16.5711 7.17769 15.8436 5.66522 14.6893 4.51094C13.5351 3.35667 12.0226 2.6292 10.4003 2.44799V1.59999C10.4003 1.15816 10.0421 0.799988 9.60029 0.799988C9.15847 0.799988 8.80029 1.15816 8.80029 1.59999V2.44799C7.17799 2.6292 5.66552 3.35667 4.51125 4.51094C3.35697 5.66522 2.6295 7.17769 2.44829 8.79999H1.60029C1.15847 8.79999 0.800293 9.15816 0.800293 9.59999C0.800293 10.0418 1.15847 10.4 1.60029 10.4H2.44829C2.6295 12.0223 3.35697 13.5348 4.51125 14.689C5.66552 15.8433 7.17799 16.5708 8.80029 16.752V17.6C8.80029 18.0418 9.15847 18.4 9.60029 18.4C10.0421 18.4 10.4003 18.0418 10.4003 17.6V16.752C12.0226 16.5708 13.5351 15.8433 14.6893 14.689C15.8436 13.5348 16.5711 12.0223 16.7523 10.4H17.6003C18.0421 10.4 18.4003 10.0418 18.4003 9.59999C18.4003 9.15816 18.0421 8.79999 17.6003 8.79999H16.7523ZM9.60029 15.2C6.50429 15.2 4.00029 12.696 4.00029 9.59999C4.00029 6.50399 6.50429 3.99999 9.60029 3.99999C12.6963 3.99999 15.2003 6.50399 15.2003 9.59999C15.2003 12.696 12.6963 15.2 9.60029 15.2Z" fill="white"/>
</svg>
