<svg width="20" height="20" viewBox="0 0 20 20" fill="none" xmlns="http://www.w3.org/2000/svg">
<path d="M15.6241 8.73749H17.3037C17.2525 7.87649 17.0631 7.02938 16.7427 6.2287L15.2681 7.08121C15.4562 7.605 15.5796 8.15989 15.6241 8.73749ZM12.6992 1.94677C11.883 1.55759 11.0067 1.31025 10.1076 1.21532V2.91447C10.7116 2.99339 11.301 3.15903 11.8577 3.40631L12.6992 1.94677ZM14.4972 5.58468L15.9592 4.73973C15.4606 4.00352 14.8444 3.35448 14.1352 2.81862L13.2904 4.28321C13.751 4.65888 14.1572 5.09691 14.4972 5.58468ZM9.26699 15.6308C7.57429 15.6308 5.95091 14.9576 4.75399 13.7593C3.55707 12.561 2.88464 10.9357 2.88464 9.24109C2.88464 6.25721 4.92927 3.75715 7.69137 3.05519C8.1075 2.94944 8.42805 2.59267 8.42805 2.16331C8.42805 1.65589 7.98686 1.25626 7.49181 1.36763C3.89305 2.1772 1.20508 5.39455 1.20508 9.24109C1.20497 10.3012 1.41344 11.3509 1.81859 12.3303C2.22375 13.3096 2.81764 14.1995 3.56636 14.9491C4.31508 15.6987 5.20395 16.2933 6.18222 16.6989C7.16049 17.1045 8.20899 17.3132 9.26783 17.3131C12.977 17.3131 16.0942 14.8018 17.0316 11.3855C17.1694 10.8833 16.767 10.419 16.2462 10.419C15.835 10.419 15.4881 10.7146 15.3682 11.1079C14.5707 13.7254 12.1425 15.6308 9.26699 15.6308Z" fill="white"/>
<circle cx="9.35727" cy="9.35733" r="2.71664" fill="white"/>
</svg>
