<svg width="20" height="20" viewBox="0 0 20 20" fill="none" xmlns="http://www.w3.org/2000/svg">
<path d="M4.2901 12.8218C4.1129 12.0484 4.02379 11.2575 4.02447 10.4641C4.02447 6.36863 6.36119 2.86879 9.65899 1.46338C12.9568 2.86879 15.2935 6.36863 15.2935 10.4641C15.2935 11.2771 15.2018 12.0667 15.0279 12.8218L16.6538 14.2674C16.7238 14.3297 16.7699 14.4144 16.7842 14.5069C16.7984 14.5995 16.7799 14.6941 16.7319 14.7745L14.7534 18.0715C14.7219 18.1239 14.6789 18.1684 14.6276 18.2017C14.5764 18.235 14.5182 18.2562 14.4575 18.2636C14.3968 18.2711 14.3353 18.2646 14.2775 18.2447C14.2197 18.2248 14.1672 18.192 14.1239 18.1488L12.3096 16.3345C12.1587 16.1835 11.954 16.0987 11.7405 16.0986H7.57744C7.36397 16.0987 7.15927 16.1835 7.00835 16.3345L5.19404 18.1488C5.15081 18.192 5.0983 18.2248 5.0405 18.2447C4.98271 18.2646 4.92114 18.2711 4.86047 18.2636C4.7998 18.2562 4.74162 18.235 4.69036 18.2017C4.63909 18.1684 4.59607 18.1239 4.56458 18.0715L2.58606 14.7753C2.53782 14.6949 2.51923 14.6 2.53348 14.5073C2.54774 14.4146 2.59395 14.3297 2.66414 14.2674L4.2901 12.8218ZM9.65899 10.4641C10.086 10.4641 10.4954 10.2945 10.7973 9.99261C11.0992 9.6907 11.2689 9.28122 11.2689 8.85426C11.2689 8.4273 11.0992 8.01782 10.7973 7.71592C10.4954 7.41401 10.086 7.2444 9.65899 7.2444C9.23203 7.2444 8.82256 7.41401 8.52065 7.71592C8.21874 8.01782 8.04913 8.4273 8.04913 8.85426C8.04913 9.28122 8.21874 9.6907 8.52065 9.99261C8.82256 10.2945 9.23203 10.4641 9.65899 10.4641Z" fill="white"/>
</svg>
