<svg width="19" height="19" viewBox="0 0 19 19" fill="none" xmlns="http://www.w3.org/2000/svg">
<path d="M15.3665 8.59355H17.0184C16.968 7.74675 16.7817 6.9136 16.4667 6.1261L15.0163 6.96457C9.11412 9.08886 15.3227 8.02548 15.3665 8.59355ZM12.4897 1.91474C11.687 1.53198 10.8251 1.28871 9.94089 1.19535V2.8665C9.11412 9.08886 11.1146 3.10703 11.6622 3.35023L12.4897 1.91474ZM14.2581 5.49271L15.6961 4.66168C15.2057 3.9376 14.5996 3.29926 13.9021 2.77223L13.0712 4.21268C9.11494 9.08886 13.9237 5.01297 14.2581 5.49271ZM9.11412 15.3732C8.289 11.1286 5.85268 14.7111 4.67549 13.5326C6.51423 9.50003 2.83695 10.7556 2.83695 9.08886C2.83695 5.89871 8.289 9.50003 8.289 2.86567C8.289 1.97197 7.50659 1.26365 6.65688 1.5406C3.48034 2.57599 1.18506 5.56378 1.18506 9.08886C1.18495 10.1315 1.38999 11.1639 1.78846 12.1271C2.18694 13.0904 2.77105 13.9656 3.50743 14.7028C4.2438 15.44 5.11803 16.0248 6.08018 16.4238C7.04233 16.8227 8.07354 17.028 9.11494 17.0279C12.5183 17.0279 15.4148 14.8783 16.5367 11.8618C16.8435 11.037 16.1606 10.2473 15.2806 10.2473C9.49994 10.2473 12.185 15.3732 9.11412 15.3732Z" fill="white"/>
<circle cx="9.20312" cy="9.20312" r="2.67188" fill="white"/>
</svg>
