<?xml version="1.0" encoding="UTF-8" standalone="no"?>
<svg
   width="35"
   height="35"
   viewBox="0 0 35 35"
   fill="none"
   version="1.1"
   id="svg13"
   sodipodi:docname="Spreying.svg"
   inkscape:version="1.1.1 (3bf5ae0d25, 2021-09-20)"
   xmlns:inkscape="http://www.inkscape.org/namespaces/inkscape"
   xmlns:sodipodi="http://sodipodi.sourceforge.net/DTD/sodipodi-0.dtd"
   xmlns="http://www.w3.org/2000/svg"
   xmlns:svg="http://www.w3.org/2000/svg">
  <sodipodi:namedview
     id="namedview15"
     pagecolor="#ffffff"
     bordercolor="#666666"
     borderopacity="1.0"
     inkscape:pageshadow="2"
     inkscape:pageopacity="0.0"
     inkscape:pagecheckerboard="0"
     showgrid="false"
     inkscape:zoom="6.0142857"
     inkscape:cx="-6.4845606"
     inkscape:cy="14.881235"
     inkscape:window-width="1920"
     inkscape:window-height="1027"
     inkscape:window-x="-8"
     inkscape:window-y="-8"
     inkscape:window-maximized="1"
     inkscape:current-layer="svg13" />
  <g
     clip-path="url(#clip0_109_3609)"
     id="g6"
     transform="matrix(1.2866928,0,0,1.1994975,-7.6672685,-2.5073577)"
     style="fill:#ffffff;fill-opacity:1">
    <path
       d="m 24.5116,6.62349 c 6.147,3.80191 8.0696,11.93571 4.2724,18.07511 -3.5031,5.6638 -10.6991,7.7301 -16.6193,5.0311 -0.8303,-0.3786 -1.0631,-1.4106 -0.5754,-2.1819 0.4809,-0.7603 1.4814,-0.9765 2.3131,-0.6334 4.3849,1.8089 9.5398,0.2376 12.1154,-3.9267 C 28.883,18.3553 27.4517,12.3001 22.8135,9.43138 20.4944,7.99701 17.8613,7.75735 15.4032,8.35898 L 15.8982,10.4456 8.18508,8.09996 14.0322,2.56699 14.6341,5.10546 C 17.8886,4.3405 21.466,4.73979 24.5395,6.64077 Z"
       fill="#ffffff"
       id="path2"
       style="fill:#ffffff;fill-opacity:1" />
    <path
       d="m 18.0788,13.1047 h 0.1265 c 2.524,0 4.5701,2.0461 4.5701,4.57 0,2.524 -2.0461,4.5701 -4.5701,4.5701 h -0.1265 c -2.5239,0 -4.57,-2.0461 -4.57,-4.5701 0,-2.5239 2.0461,-4.57 4.57,-4.57 z"
       stroke="#ffffff"
       stroke-width="2.1875"
       id="path4"
       style="fill:#ffffff;fill-opacity:1" />
  </g>
  <defs
     id="defs11">
    <clipPath
       id="clip0_109_3609">
      <rect
         width="35"
         height="35"
         fill="white"
         id="rect8" />
    </clipPath>
  </defs>
</svg>
